<svg width="1007" height="253" viewBox="0 0 1007 253" fill="none" xmlns="http://www.w3.org/2000/svg">
<path fill-rule="evenodd" clip-rule="evenodd" d="M63.95 1.68146C40.405 5.62346 18.592 22.1745 7.815 44.2765C1.939 56.3285 0.0820005 65.7634 0.579 81.0294C0.95 92.3904 1.409 95.2715 4.052 102.815C11.473 123.996 27.677 141.48 47.673 149.881C59.416 154.815 65.483 155.584 92.875 155.609C106.926 155.622 119.504 156.084 121.594 156.665C129.39 158.83 135.309 166.849 135.353 175.306C135.394 183.167 131.388 189.247 123.875 192.725C120.124 194.462 116.149 194.578 60.125 194.599L0.375 194.621V223.621V252.621L61.125 252.613C98.718 252.609 124.353 252.206 128.375 251.556C155.603 247.158 179.894 226.833 188.912 200.903C203.613 158.63 179.234 112.251 135.875 100.003C131.125 98.6624 123.695 98.1855 100.208 97.7155L70.541 97.1215L66.297 94.1215C60.786 90.2255 58.089 84.9665 58.089 78.1165C58.089 71.0355 61.835 64.4874 67.668 61.3694C71.806 59.1584 72.548 59.1165 113.125 58.8295L154.375 58.5385V29.5795V0.62146L111.625 0.739471C88.112 0.803471 66.659 1.22746 63.95 1.68146ZM208.375 126.621V252.621H236.865H265.356L265.615 204.371L265.875 156.121L304.625 155.859L343.375 155.598V204.109V252.621H372.375H401.375V126.621V0.62146H372.375H343.375V49.1215V97.6215H304.375H265.375V49.1215V0.62146H236.875H208.375V126.621ZM482.868 1.87146C481.942 4.47346 416.375 250.828 416.375 251.703C416.375 252.818 473.045 252.964 473.733 251.851C473.995 251.427 482.586 219.815 492.824 181.601C503.063 143.387 511.718 111.221 512.059 110.121C512.709 108.021 512.596 107.622 536.83 198.121C544.341 226.171 550.717 249.909 550.998 250.871C551.47 252.486 553.752 252.621 580.51 252.621C607.671 252.621 609.475 252.51 608.962 250.871C608.018 247.86 542.375 1.64746 542.375 1.12146C542.375 0.84646 529.086 0.62146 512.844 0.62146C490.122 0.62146 483.21 0.90946 482.868 1.87146ZM687.95 1.68146C658.854 6.55246 633.722 29.9595 626.374 59.0315C624.446 66.6585 624.375 70.2574 624.375 159.781V252.621H652.865H681.356L681.615 204.371L681.875 156.121L749.625 155.864L817.375 155.607V126.614V97.6215H749.254H681.134L681.543 85.3195C681.917 74.0925 682.193 72.6075 684.707 68.3185C686.499 65.2605 688.932 62.8324 691.668 61.3694L695.875 59.1215L756.625 58.8415L817.375 58.5625V29.5915V0.62146L755.125 0.739471C720.888 0.803471 690.659 1.22746 687.95 1.68146ZM832.375 29.6215V58.6215H861.375H890.375V155.621V252.621H919.375H948.375V155.621V58.6215H977.375H1006.38V29.6215V0.62146H919.375H832.375V29.6215Z" fill="white"/>
</svg>
